<?xml version="1.0" standalone="no"?>
<svg version="1.2" xmlns="http://www.w3.org/2000/svg" xmlns:xlink="http://www.w3.org/1999/xlink" overflow="visible" preserveAspectRatio="none" viewBox="0 0 491 491" xml:space="preserve" y="0px" x="0px" id="Capa_1_1560852996175" width="20" height="20"><g transform="translate(1, 1)"><g>
	<path d="M440.1,422.7l-28-315.3c-0.6-7-6.5-12.3-13.4-12.3h-57.6C340.3,42.5,297.3,0,244.5,0s-95.8,42.5-96.6,95.1H90.3   c-7,0-12.8,5.3-13.4,12.3l-28,315.3c0,0.4-0.1,0.8-0.1,1.2c0,35.9,32.9,65.1,73.4,65.1h244.6c40.5,0,73.4-29.2,73.4-65.1   C440.2,423.5,440.2,423.1,440.1,422.7z M244.5,27c37.9,0,68.8,30.4,69.6,68.1H174.9C175.7,57.4,206.6,27,244.5,27z M366.8,462   H122.2c-25.4,0-46-16.8-46.4-37.5l26.8-302.3h45.2v41c0,7.5,6,13.5,13.5,13.5s13.5-6,13.5-13.5v-41h139.3v41   c0,7.5,6,13.5,13.5,13.5s13.5-6,13.5-13.5v-41h45.2l26.9,302.3C412.8,445.2,392.1,462,366.8,462z" vector-effect="non-scaling-stroke"/>
</g><g>
</g><g>
</g><g>
</g><g>
</g><g>
</g><g>
</g><g>
</g><g>
</g><g>
</g><g>
</g><g>
</g><g>
</g><g>
</g><g>
</g><g>
</g></g></svg>