<?xml version="1.0" standalone="no"?>
<svg version="1.2" xmlns="http://www.w3.org/2000/svg" xmlns:xlink="http://www.w3.org/1999/xlink" overflow="visible" preserveAspectRatio="none" viewBox="0 -61 514 514" width="20" height="20"><g transform="translate(1, 1)"><path d="m75 390h362c41.355469 0 75-33.644531 75-75v-240c0-41.355469-33.644531-75-75-75h-362c-41.355469 0-75 33.644531-75 75v240c0 41.355469 33.644531 75 75 75zm-45-315c0-24.8125 20.1875-45 45-45h362c24.8125 0 45 20.1875 45 45v240c0 24.8125-20.1875 45-45 45h-362c-24.8125 0-45-20.1875-45-45zm0 0" vector-effect="non-scaling-stroke"/><path d="m181 94.507812v203.898438l180.5-103.621094zm30 50.984376 89.5 49.722656-89.5 51.378906zm0 0" vector-effect="non-scaling-stroke"/></g></svg>